<?xml version="1.0" encoding="UTF-8"?>
<svg xmlns="http://www.w3.org/2000/svg" xmlns:xlink="http://www.w3.org/1999/xlink" width="128px" height="128px" viewBox="0 0 128 128" version="1.1">
<g id="surface1">
<path style=" stroke:none;fill-rule:nonzero;fill:rgb(84.313725%,15.686275%,18.431373%);fill-opacity:1;" d="M 113.09375 49.816406 C 112.207031 49.816406 111.320312 49.589844 110.492188 49.113281 L 42.40625 9.804688 C 39.90625 8.359375 39.0625 5.183594 40.503906 2.683594 C 41.949219 0.1875 45.128906 -0.660156 47.628906 0.785156 L 115.695312 40.09375 C 118.195312 41.539062 119.039062 44.71875 117.59375 47.214844 C 116.644531 48.886719 114.890625 49.816406 113.09375 49.816406 Z M 113.09375 49.816406 "/>
<path style=" stroke:none;fill-rule:nonzero;fill:rgb(14.509804%,58.823529%,21.960784%);fill-opacity:1;" d="M 106.363281 122.695312 L 21.636719 122.695312 C 12.574219 122.695312 5.203125 115.34375 5.203125 106.261719 L 5.203125 59.644531 C 5.203125 50.582031 12.550781 43.210938 21.636719 43.210938 L 106.363281 43.210938 C 115.425781 43.210938 122.796875 50.558594 122.796875 59.644531 L 122.796875 106.28125 C 122.796875 115.34375 115.425781 122.695312 106.363281 122.695312 Z M 106.363281 122.695312 "/>
<path style=" stroke:none;fill-rule:nonzero;fill:rgb(10.588235%,8.627451%,8.627451%);fill-opacity:1;" d="M 43.167969 82.972656 C 43.167969 87.578125 39.433594 91.3125 34.828125 91.3125 C 30.222656 91.3125 26.488281 87.578125 26.488281 82.972656 C 26.488281 78.367188 30.222656 74.632812 34.828125 74.632812 C 39.433594 74.632812 43.167969 78.367188 43.167969 82.972656 Z M 43.167969 82.972656 "/>
<path style=" stroke:none;fill-rule:nonzero;fill:rgb(10.588235%,8.627451%,8.627451%);fill-opacity:1;" d="M 72.339844 82.972656 C 72.339844 87.578125 68.605469 91.3125 64 91.3125 C 59.394531 91.3125 55.660156 87.578125 55.660156 82.972656 C 55.660156 78.367188 59.394531 74.632812 64 74.632812 C 68.605469 74.632812 72.339844 78.367188 72.339844 82.972656 Z M 72.339844 82.972656 "/>
<path style=" stroke:none;fill-rule:nonzero;fill:rgb(10.588235%,8.627451%,8.627451%);fill-opacity:1;" d="M 101.511719 82.972656 C 101.511719 87.578125 97.777344 91.3125 93.171875 91.3125 C 88.566406 91.3125 84.832031 87.578125 84.832031 82.972656 C 84.832031 78.367188 88.566406 74.632812 93.171875 74.632812 C 97.777344 74.632812 101.511719 78.367188 101.511719 82.972656 Z M 101.511719 82.972656 "/>
<path style=" stroke:none;fill-rule:nonzero;fill:rgb(12.941176%,12.156863%,48.627451%);fill-opacity:1;" d="M 106.363281 127.917969 L 21.636719 127.917969 C 9.703125 127.917969 0 118.214844 0 106.28125 L 0 59.644531 C 0 47.710938 9.703125 38.007812 21.636719 38.007812 L 106.363281 38.007812 C 118.296875 38.007812 128 47.710938 128 59.644531 L 128 106.28125 C 128 118.214844 118.296875 127.917969 106.363281 127.917969 Z M 21.636719 48.433594 C 15.441406 48.433594 10.425781 53.472656 10.425781 59.644531 L 10.425781 106.28125 C 10.425781 112.476562 15.464844 117.492188 21.636719 117.492188 L 106.363281 117.492188 C 112.535156 117.492188 117.574219 112.453125 117.574219 106.28125 L 117.574219 59.644531 C 117.574219 53.449219 112.535156 48.433594 106.363281 48.433594 Z M 21.636719 48.433594 "/>
<path style=" stroke:none;fill-rule:nonzero;fill:rgb(71.372549%,13.333333%,13.333333%);fill-opacity:1;" d="M 5.203125 88.175781 C 2.332031 88.175781 0 85.84375 0 82.972656 L 0 59.644531 C 0 47.710938 9.703125 38.007812 21.636719 38.007812 L 64 38.007812 C 66.871094 38.007812 69.203125 40.339844 69.203125 43.210938 C 69.203125 46.078125 66.871094 48.414062 64 48.414062 L 21.636719 48.414062 C 15.441406 48.414062 10.425781 53.449219 10.425781 59.625 L 10.425781 82.929688 C 10.425781 85.84375 8.09375 88.175781 5.203125 88.175781 Z M 5.203125 88.175781 "/>
</g>
</svg>
